<svg xmlns="http://www.w3.org/2000/svg" width="24" height="24" viewBox="0 0 24 24" fill="none" stroke="currentColor" stroke-width="1.5" stroke-linecap="round" stroke-linejoin="round">
  <!-- Spiky Hair -->
  <path d="M7 7L6 3M9 6L8.5 2M12 5.5V1.5M15 6L15.5 2M17 7L18 3"/>
  
  <!-- Head outline -->
  <path d="M6 10C6 6.5 8.5 4 12 4C15.5 4 18 6.5 18 10C18 12 17 14 15.5 15C14.5 15.7 13.3 16 12 16C10.7 16 9.5 15.7 8.5 15C7 14 6 12 6 10Z"/>
  
  <!-- Sunglasses -->
  <rect x="6.5" y="8.5" width="4" height="2.5" rx="0.5" fill="currentColor"/>
  <rect x="13.5" y="8.5" width="4" height="2.5" rx="0.5" fill="currentColor"/>
  <line x1="10.5" y1="9.5" x2="13.5" y2="9.5"/>
  <line x1="6.5" y1="9.5" x2="5" y2="8.5"/>
  <line x1="17.5" y1="9.5" x2="19" y2="8.5"/>
  
  <!-- Beard -->
  <path d="M8 13C8 13 9 15 12 15C15 15 16 13 16 13"/>
  <path d="M9.5 14C10 14.5 11 15 12 15C13 15 14 14.5 14.5 14"/>
  
  <!-- Neck and shoulders -->
  <path d="M10 16V17.5L8 18.5L4 20V22H20V20L16 18.5L14 17.5V16"/>
</svg>
